<svg width="13" height="17" viewBox="0 0 13 17" fill="none" xmlns="http://www.w3.org/2000/svg">
<path d="M5.6875 10.2H7.3125V7.65H9.75V5.95H7.3125V3.4H5.6875V5.95H3.25V7.65H5.6875V10.2ZM6.5 14.7475C8.15208 13.1608 9.3776 11.7192 10.1766 10.4227C10.9755 9.12673 11.375 7.97583 11.375 6.97C11.375 5.42583 10.9043 4.16132 9.96287 3.17645C9.022 2.19215 7.86771 1.7 6.5 1.7C5.13229 1.7 3.97773 2.19215 3.03631 3.17645C2.09544 4.16132 1.625 5.42583 1.625 6.97C1.625 7.97583 2.02448 9.12673 2.82344 10.4227C3.6224 11.7192 4.84792 13.1608 6.5 14.7475ZM6.5 17C4.31979 15.0592 2.69154 13.2563 1.61525 11.5915C0.538417 9.92715 0 8.38667 0 6.97C0 4.845 0.653521 3.15208 1.96056 1.89125C3.26706 0.630417 4.78021 0 6.5 0C8.21979 0 9.73294 0.630417 11.0394 1.89125C12.3465 3.15208 13 4.845 13 6.97C13 8.38667 12.4619 9.92715 11.3856 11.5915C10.3087 13.2563 8.68021 15.0592 6.5 17Z" fill="#244A8D"/>
</svg>
