<!-- <svg width="17" height="11" viewBox="0 0 17 11" fill="none" xmlns="http://www.w3.org/2000/svg">
<path d="M8.5 11L1.88889 3.61391V8.44125H0V0H7.55556V2.11031H3.21111L8.5 8.01919L15.6778 0L17 1.5036L8.5 11Z" fill="#244A8D"/>
</svg> -->

<svg width="17" height="18" viewBox="0 0 17 18" fill="none" xmlns="http://www.w3.org/2000/svg">
<path d="M14.9429 1.8H11.2274C10.854 0.756 9.87626 0 8.7207 0C7.56515 0 6.58737 0.756 6.21404 1.8H2.49848C1.5207 1.8 0.720703 2.61 0.720703 3.6V16.2C0.720703 17.19 1.5207 18 2.49848 18H14.9429C15.9207 18 16.7207 17.19 16.7207 16.2V3.6C16.7207 2.61 15.9207 1.8 14.9429 1.8ZM9.60959 15.3H7.83181V13.5H9.60959V15.3ZM9.60959 11.7H7.83181V6.3H9.60959V11.7ZM8.7207 3.6C8.23181 3.6 7.83181 3.195 7.83181 2.7C7.83181 2.205 8.23181 1.8 8.7207 1.8C9.20959 1.8 9.60959 2.205 9.60959 2.7C9.60959 3.195 9.20959 3.6 8.7207 3.6Z" fill="#244A8D"/>
</svg>
