<svg width="17" height="20" viewBox="0 0 17 20" fill="none" xmlns="http://www.w3.org/2000/svg">
<path d="M15.1938 6.40362L16.1607 5.45727C16.3607 5.25927 16.4731 4.99073 16.4731 4.71071C16.4731 4.4307 16.3607 4.16215 16.1607 3.96415C15.9606 3.76615 15.6892 3.65491 15.4063 3.65491C15.1233 3.65491 14.852 3.76615 14.6519 3.96415L13.6957 4.92101C12.2066 3.78103 10.3773 3.16252 8.49472 3.16252C6.61213 3.16252 4.78281 3.78103 3.29378 4.92101L2.3269 3.95363C2.12542 3.75563 1.85271 3.64495 1.56877 3.64594C1.28483 3.64692 1.01291 3.75949 0.81284 3.95889C0.612768 4.15829 0.500928 4.42817 0.501924 4.70917C0.50292 4.99017 0.616671 5.25927 0.818153 5.45727L1.79565 6.41414C0.630107 7.88365 -0.00231961 9.69833 2.78683e-05 11.5665C-0.00344192 12.9076 0.317145 14.2301 0.935053 15.4236C1.55296 16.6172 2.45028 17.6473 3.55217 18.428C4.65406 19.2086 5.92859 19.7172 7.26945 19.9114C8.61032 20.1055 9.97866 19.9796 11.2604 19.5441C12.542 19.1086 13.6999 18.3761 14.6375 17.4077C15.575 16.4394 16.265 15.2632 16.6499 13.9773C17.0348 12.6915 17.1035 11.3331 16.8502 10.0157C16.5969 8.69819 16.029 7.45975 15.1938 6.40362ZM8.50003 17.8755C7.23917 17.8755 6.00663 17.5054 4.95827 16.8122C3.9099 16.119 3.0928 15.1336 2.6103 13.9808C2.12779 12.828 2.00154 11.5595 2.24752 10.3357C2.4935 9.11183 3.10066 7.98768 3.99222 7.10535C4.88378 6.22302 6.0197 5.62215 7.25633 5.37872C8.49296 5.13528 9.77476 5.26022 10.9396 5.73773C12.1045 6.21525 13.1002 7.02388 13.8006 8.06139C14.5011 9.0989 14.875 10.3187 14.875 11.5665C14.875 13.2397 14.2034 14.8444 13.0078 16.0276C11.8123 17.2108 10.1908 17.8755 8.50003 17.8755ZM6.37503 2.103H10.625C10.9068 2.103 11.1771 1.99221 11.3763 1.79502C11.5756 1.59782 11.6875 1.33037 11.6875 1.0515C11.6875 0.772623 11.5756 0.505171 11.3763 0.307977C11.1771 0.110782 10.9068 0 10.625 0H6.37503C6.09324 0 5.82298 0.110782 5.62373 0.307977C5.42447 0.505171 5.31253 0.772623 5.31253 1.0515C5.31253 1.33037 5.42447 1.59782 5.62373 1.79502C5.82298 1.99221 6.09324 2.103 6.37503 2.103ZM9.56253 8.41198C9.56253 8.13311 9.45059 7.86566 9.25133 7.66846C9.05207 7.47127 8.78182 7.36049 8.50003 7.36049C8.21824 7.36049 7.94798 7.47127 7.74873 7.66846C7.54947 7.86566 7.43753 8.13311 7.43753 8.41198V10.3993C7.19695 10.6123 7.02737 10.8925 6.95124 11.2029C6.87511 11.5133 6.89602 11.8393 7.01119 12.1377C7.12636 12.4361 7.33038 12.6929 7.59623 12.874C7.86209 13.0552 8.17725 13.1522 8.50003 13.1522C8.8228 13.1522 9.13797 13.0552 9.40383 12.874C9.66968 12.6929 9.87369 12.4361 9.98887 12.1377C10.104 11.8393 10.1249 11.5133 10.0488 11.2029C9.97268 10.8925 9.80311 10.6123 9.56253 10.3993V8.41198Z" fill="#244A8D"/>
</svg>
