<!-- <svg width="15" height="15" viewBox="0 0 15 15" fill="none" xmlns="http://www.w3.org/2000/svg">
<path d="M10.5 13.6364V12.2727H13.5V5.45455H3V8.18182H1.5V2.72727C1.5 2.35227 1.64675 2.03136 1.94025 1.76455C2.23425 1.49727 2.5875 1.36364 3 1.36364H3.75V0H5.25V1.36364H11.25V0H12.75V1.36364H13.5C13.9125 1.36364 14.2657 1.49727 14.5597 1.76455C14.8533 2.03136 15 2.35227 15 2.72727V12.2727C15 12.6477 14.8533 12.9689 14.5597 13.2361C14.2657 13.503 13.9125 13.6364 13.5 13.6364H10.5ZM5.25 15L4.2 14.0455L6.13125 12.2727H0V10.9091H6.13125L4.2 9.13636L5.25 8.18182L9 11.5909L5.25 15ZM3 4.09091H13.5V2.72727H3V4.09091Z" fill="#244A8D"/>
</svg> -->

<svg width="17" height="18" viewBox="0 0 17 18" fill="none" xmlns="http://www.w3.org/2000/svg">
<path d="M14.9429 1.8H11.2274C10.854 0.756 9.87626 0 8.7207 0C7.56515 0 6.58737 0.756 6.21404 1.8H2.49848C1.5207 1.8 0.720703 2.61 0.720703 3.6V16.2C0.720703 17.19 1.5207 18 2.49848 18H14.9429C15.9207 18 16.7207 17.19 16.7207 16.2V3.6C16.7207 2.61 15.9207 1.8 14.9429 1.8ZM8.7207 1.8C9.20959 1.8 9.60959 2.205 9.60959 2.7C9.60959 3.195 9.20959 3.6 8.7207 3.6C8.23181 3.6 7.83181 3.195 7.83181 2.7C7.83181 2.205 8.23181 1.8 8.7207 1.8ZM6.94293 14.4L3.38737 10.8L4.6407 9.531L6.94293 11.853L12.8007 5.922L14.054 7.2L6.94293 14.4Z" fill="#244A8D"/>
</svg>
