<svg width="35" height="36" viewBox="0 0 35 36" fill="none" xmlns="http://www.w3.org/2000/svg">
<path d="M19.25 19.3867H15.75V8.88672H19.25M19.25 26.3867H15.75V22.8867H19.25M17.5 0.136719C15.2019 0.136719 12.9262 0.58937 10.803 1.46883C8.67984 2.34828 6.75066 3.63732 5.12563 5.26235C1.84374 8.54424 0 12.9954 0 17.6367C0 22.278 1.84374 26.7292 5.12563 30.0111C6.75066 31.6361 8.67984 32.9252 10.803 33.8046C12.9262 34.6841 15.2019 35.1367 17.5 35.1367C22.1413 35.1367 26.5925 33.293 29.8744 30.0111C33.1563 26.7292 35 22.278 35 17.6367C35 15.3386 34.5474 13.063 33.6679 10.9398C32.7884 8.81656 31.4994 6.88738 29.8744 5.26235C28.2493 3.63732 26.3202 2.34828 24.197 1.46883C22.0738 0.58937 19.7981 0.136719 17.5 0.136719Z" fill="#E41B1B"/>
</svg>
