<svg width="16" height="16" viewBox="0 0 16 16" fill="none" xmlns="http://www.w3.org/2000/svg">
<g clip-path="url(#clip0_639_8393)">
<path d="M8.00016 14.6673C11.6821 14.6673 14.6668 11.6825 14.6668 8.00065C14.6668 4.31875 11.6821 1.33398 8.00016 1.33398C4.31826 1.33398 1.3335 4.31875 1.3335 8.00065C1.3335 11.6825 4.31826 14.6673 8.00016 14.6673Z" stroke="white" stroke-width="1.33" stroke-linecap="round" stroke-linejoin="round"/>
<path d="M1.3335 8H14.6668" stroke="white" stroke-width="1.33" stroke-linecap="round" stroke-linejoin="round"/>
<path d="M8.00016 1.33398C9.66768 3.15955 10.6153 5.52867 10.6668 8.00065C10.6153 10.4726 9.66768 12.8417 8.00016 14.6673C6.33264 12.8417 5.38499 10.4726 5.3335 8.00065C5.38499 5.52867 6.33264 3.15955 8.00016 1.33398V1.33398Z" stroke="white" stroke-width="1.33" stroke-linecap="round" stroke-linejoin="round"/>
</g>
<defs>
<clipPath id="clip0_639_8393">
<rect width="16" height="16" fill="white"/>
</clipPath>
</defs>
</svg>
