<!-- <svg width="39" height="39" viewBox="0 0 39 39" fill="none" xmlns="http://www.w3.org/2000/svg">
<rect width="39" height="39" rx="15" fill="#262626"/>
<circle cx="19.4998" cy="19.5008" r="10.7449" fill="white"/>
<circle cx="19.4996" cy="19.5006" r="2.78571" fill="#262626"/>
</svg> -->

<svg width="25" height="35" viewBox="0 0 25 35" fill="none" xmlns="http://www.w3.org/2000/svg">
<path d="M12.7158 0C14.0391 1.30827 15.33 2.57156 16.6056 3.84924C19.2684 6.51617 21.9249 9.1912 24.5787 11.868C24.656 11.9463 24.7126 12.0849 24.7126 12.1955C24.7189 18.727 24.718 25.2585 24.7207 31.7899C24.7207 31.9285 24.6955 32.014 24.5553 32.086C22.4049 33.199 20.1404 33.989 17.7716 34.4776C15.7103 34.9032 13.6237 35.0687 11.5237 34.9743C7.80106 34.8078 4.26628 33.8981 0.931072 32.2227C0.789933 32.1517 0.719813 32.0788 0.720712 31.9042C0.734196 28.3951 0.737792 24.8851 0.74858 21.376C0.75757 18.3914 0.773751 15.4068 0.780943 12.4223C0.780943 12.2576 0.831286 12.1461 0.943658 12.0309C3.75386 9.17051 6.55957 6.30742 9.36707 3.44434C10.4216 2.36911 11.4761 1.29298 12.5297 0.215946C12.6007 0.143964 12.6645 0.0602849 12.7158 0ZM12.7418 6.4046C16.389 10.055 20.0155 13.6847 23.6419 17.3153C23.6644 17.3009 23.686 17.2865 23.7085 17.2721C23.7085 17.1911 23.7085 17.1101 23.7085 17.0291C23.7085 15.8144 23.7013 14.5997 23.7139 13.3851C23.7165 13.1466 23.641 12.9847 23.4756 12.82C19.9561 9.30187 16.4411 5.77835 12.9252 2.25664C12.8686 2.19995 12.8084 2.14596 12.7427 2.08388C12.678 2.14506 12.6223 2.19455 12.5701 2.24674C11.8671 2.95306 11.1659 3.66028 10.462 4.36571C7.62576 7.2072 4.78858 10.0478 1.94782 12.8857C1.83185 13.0017 1.7869 13.116 1.7878 13.2771C1.79499 14.6942 1.79589 16.1114 1.79589 17.5285C1.79589 19.6655 1.79319 21.8024 1.79229 23.9394C1.79229 24.024 1.80038 24.1077 1.80758 24.2516C5.479 20.5743 9.10457 16.9428 12.723 13.3176C12.7778 13.3536 12.7922 13.3599 12.8021 13.3707C15.7049 16.2751 18.6086 19.1796 21.5069 22.0886C21.5698 22.1516 21.6057 22.2703 21.6066 22.3639C21.6147 23.0765 21.6111 23.7882 21.6111 24.5009C21.6111 24.572 21.6111 24.643 21.6111 24.787C18.6211 21.8051 15.6797 18.8728 12.7086 15.9089C12.6726 15.9584 12.634 16.025 12.5818 16.0781C10.9169 17.7517 9.25111 19.4243 7.5835 21.0952C5.71453 22.9677 3.84286 24.8374 1.97838 26.7143C1.88848 26.8052 1.80128 26.9501 1.80038 27.0715C1.7878 28.3465 1.79229 29.6206 1.79499 30.8956C1.79499 30.9694 1.81567 31.0422 1.83454 31.1682C5.50057 27.4953 9.12525 23.8656 12.8111 20.1739C16.4573 23.8269 20.0811 27.4584 23.739 31.1232C23.739 30.0327 23.7417 28.962 23.7381 27.8921C23.7291 25.299 23.7183 22.7049 23.7004 20.1118C23.6995 20.02 23.6491 19.9066 23.5835 19.8409C20.0352 16.2778 16.4816 12.7201 12.9342 9.15521C12.7769 8.99685 12.6969 9.02924 12.5611 9.16781C11.8698 9.87503 11.1722 10.5769 10.4737 11.2769C8.34044 13.4147 6.20537 15.5517 4.0703 17.6878C4.03344 17.7247 3.98849 17.7535 3.92736 17.8011C3.92736 16.9878 3.93096 16.2076 3.92377 15.4275C3.92287 15.2791 3.97321 15.1801 4.07569 15.0766C6.03187 13.1241 7.98535 11.168 9.93792 9.2119C10.8684 8.28603 11.7925 7.35746 12.7418 6.4046Z" fill="#244B8A"/>
</svg>
