<svg width="55" height="66" viewBox="0 0 55 66" fill="none" xmlns="http://www.w3.org/2000/svg">
<path d="M55 27.968C55 11.9279 41.7237 -0.958662 25.7371 0.0560893C12.0738 0.922341 0.944512 12.2115 0.0594252 26.1055C-0.736033 38.5919 6.53411 49.4572 17.0828 53.8534C17.1633 53.8926 17.2285 53.9287 17.3151 53.9679C21.9075 56.0757 24.8745 61.6724 26.3605 65.2343C26.7862 66.2552 28.2142 66.2552 28.6399 65.2343C30.1259 61.6724 33.0928 56.0757 37.6853 53.9679C37.7719 53.9287 37.8371 53.8926 37.9175 53.8534C47.9387 49.6779 55 39.6634 55 27.968Z" fill="#244B8A"/>
<circle cx="27.5" cy="27.5" r="23.5" fill="white"/>
<path d="M23.3514 20H28.9114V34H26.3114V22.18H23.3514V20Z" fill="#244B8A"/>
</svg>
