<svg width="19" height="18" viewBox="0 0 19 18" fill="none" xmlns="http://www.w3.org/2000/svg">
<path d="M13.2697 10.1256L11.3412 12.1834L16.7923 18L18.7207 15.9422L13.2697 10.1256Z" fill="#244A8D"/>
<path d="M14.7205 7.16623C16.4751 7.16623 17.9023 5.64326 17.9023 3.77106C17.9023 3.20843 17.7569 2.68461 17.5296 2.21899L15.0751 4.83812L13.7205 3.39274L16.1751 0.773614C15.7387 0.531101 15.2478 0.375894 14.7205 0.375894C12.966 0.375894 11.5387 1.89887 11.5387 3.77106C11.5387 4.16878 11.6115 4.5471 11.7297 4.89632L10.0479 6.69091L8.4297 4.96422L9.07514 4.27549L7.79334 2.90772L9.72059 0.851217C8.65697 -0.283739 6.92972 -0.283739 5.86609 0.851217L2.64795 4.28519L3.92975 5.65296H1.36615L0.720703 6.34169L3.93884 9.77566L4.58429 9.08693V6.34169L5.86609 7.70946L6.51154 7.02072L8.1297 8.74741L1.39342 15.9355L3.32067 17.992L13.666 6.96252C13.9933 7.08863 14.3478 7.16623 14.7205 7.16623Z" fill="#244A8D"/>
</svg>
