<svg width="20" height="15" viewBox="0 0 20 15" fill="none" xmlns="http://www.w3.org/2000/svg">
<path fill-rule="evenodd" clip-rule="evenodd" d="M5.38462 1.28175L1.07231 0.05025C0.970769 0.01875 0.876923 0 0.769231 0C0.344615 0 0 0.336 0 0.75V12.75C0 13.0995 0.25 13.38 0.582308 13.4633L5.38462 14.8155V1.28175ZM13.0769 0.13875L6.92308 1.3485V14.8477L13.0769 13.65V0.13875ZM14.6154 0.1875L19.3985 1.533C19.7377 1.63425 20 1.89375 20 2.25V14.25C20 14.664 19.6554 15 19.2308 15C19.1438 15 19.0631 14.9775 18.9854 14.952L14.6154 13.719V0.1875Z" fill="#244B8A"/>
</svg>
