<svg width="17" height="17" viewBox="0 0 17 17" fill="none" xmlns="http://www.w3.org/2000/svg">
<path d="M5.1 10.2H11.9V9.7325C11.9 9.10917 11.5883 8.60625 10.965 8.22375C10.3417 7.84125 9.52 7.65 8.5 7.65C7.48 7.65 6.65833 7.84125 6.035 8.22375C5.41167 8.60625 5.1 9.10917 5.1 9.7325V10.2ZM8.5 6.8C8.9675 6.8 9.36785 6.6334 9.70105 6.3002C10.0337 5.96757 10.2 5.5675 10.2 5.1C10.2 4.6325 10.0337 4.23243 9.70105 3.8998C9.36785 3.5666 8.9675 3.4 8.5 3.4C8.0325 3.4 7.63243 3.5666 7.2998 3.8998C6.9666 4.23243 6.8 4.6325 6.8 5.1C6.8 5.5675 6.9666 5.96757 7.2998 6.3002C7.63243 6.6334 8.0325 6.8 8.5 6.8ZM0 17V1.7C0 1.2325 0.1666 0.83215 0.4998 0.49895C0.832433 0.166317 1.2325 0 1.7 0H15.3C15.7675 0 16.1679 0.166317 16.5011 0.49895C16.8337 0.83215 17 1.2325 17 1.7V11.9C17 12.3675 16.8337 12.7679 16.5011 13.1011C16.1679 13.4337 15.7675 13.6 15.3 13.6H3.4L0 17ZM1.7 12.8987L2.69875 11.9H15.3V1.7H1.7V12.8987Z" fill="#244A8D"/>
</svg>
