<svg width="19" height="18" viewBox="0 0 19 18" fill="none" xmlns="http://www.w3.org/2000/svg">
<path d="M16.6407 1.01C16.4407 0.42 15.8807 0 15.2207 0H4.2207C3.5607 0 3.0107 0.42 2.8007 1.01L0.720703 8V17C0.720703 17.55 1.1707 18 1.7207 18H2.7207C3.2707 18 3.7207 17.55 3.7207 17V16H15.7207V17C15.7207 17.55 16.1707 18 16.7207 18H17.7207C18.2707 18 18.7207 17.55 18.7207 17V8L16.6407 1.01ZM5.2207 12C4.3907 12 3.7207 11.33 3.7207 10.5C3.7207 9.67 4.3907 9 5.2207 9C6.0507 9 6.7207 9.67 6.7207 10.5C6.7207 11.33 6.0507 12 5.2207 12ZM14.2207 12C13.3907 12 12.7207 11.33 12.7207 10.5C12.7207 9.67 13.3907 9 14.2207 9C15.0507 9 15.7207 9.67 15.7207 10.5C15.7207 11.33 15.0507 12 14.2207 12ZM3.5307 6L4.5707 2H14.8607L15.9007 6H3.5307Z" fill="#244A8D"/>
</svg>
