<svg width="17" height="13" viewBox="0 0 17 13" fill="none" xmlns="http://www.w3.org/2000/svg">
<path d="M4.25 9.75C4.49083 9.75 4.69285 9.672 4.85605 9.516C5.01868 9.36054 5.1 9.16771 5.1 8.9375C5.1 8.70729 5.01868 8.51419 4.85605 8.35819C4.69285 8.20273 4.49083 8.125 4.25 8.125C4.00917 8.125 3.80715 8.20273 3.64395 8.35819C3.48132 8.51419 3.4 8.70729 3.4 8.9375C3.4 9.16771 3.48132 9.36054 3.64395 9.516C3.80715 9.672 4.00917 9.75 4.25 9.75ZM3.4 7.3125H5.1V3.25H3.4V7.3125ZM6.8 8.9375H13.6V7.3125H6.8V8.9375ZM6.8 5.6875H13.6V4.0625H6.8V5.6875ZM1.7 13C1.2325 13 0.832433 12.841 0.4998 12.5231C0.1666 12.2046 0 11.8219 0 11.375V1.625C0 1.17812 0.1666 0.795708 0.4998 0.47775C0.832433 0.15925 1.2325 0 1.7 0H15.3C15.7675 0 16.1679 0.15925 16.5011 0.47775C16.8337 0.795708 17 1.17812 17 1.625V11.375C17 11.8219 16.8337 12.2046 16.5011 12.5231C16.1679 12.841 15.7675 13 15.3 13H1.7ZM1.7 11.375H15.3V1.625H1.7V11.375Z" fill="#244A8D"/>
</svg>
