<svg width="24" height="20" viewBox="0 0 24 20" fill="none" xmlns="http://www.w3.org/2000/svg">
<path d="M23.7825 6.44615L20.715 3.3C20.5753 3.15789 20.3868 3.07777 20.19 3.07692H16.44V1.57692C16.4502 1.17273 16.3048 0.780685 16.0353 0.48558C15.7658 0.190476 15.3939 0.0160385 15 0H8.88001C8.68752 0.00776875 8.4985 0.0550727 8.32415 0.139111C8.1498 0.223149 7.99366 0.342214 7.86499 0.489254C7.73631 0.636294 7.6377 0.80832 7.57501 0.995147C7.51232 1.18197 7.48682 1.3798 7.50001 1.57692V3.07692H3.81001C3.71131 3.07634 3.61346 3.09574 3.52208 3.13402C3.4307 3.1723 3.34759 3.22871 3.27751 3.3L0.217512 6.44615C0.148001 6.51803 0.0930075 6.60327 0.0556841 6.697C0.0183606 6.79072 -0.000558134 6.89107 1.25357e-05 6.99231V18.4615C1.25357e-05 18.8696 0.158048 19.2609 0.439352 19.5494C0.720657 19.8379 1.10219 20 1.50001 20H22.5C22.8978 20 23.2794 19.8379 23.5607 19.5494C23.842 19.2609 24 18.8696 24 18.4615V6.98462C23.9992 6.78282 23.9211 6.58943 23.7825 6.44615ZM9.00001 1.53846H15V3.07692H9.00001V1.53846ZM22.5 10H15V11.4846H22.5V18.4615H1.50001V11.4846H9.00001V10H1.50001V7.30769L4.12501 4.61538H19.875L22.5 7.30769V10Z" fill="black"/>
<path d="M13.5 7.69231H10.5C10.3011 7.69231 10.1103 7.77335 9.96967 7.91761C9.82901 8.06187 9.75 8.25753 9.75 8.46154V13.0769C9.75 13.2809 9.82901 13.4766 9.96967 13.6209C10.1103 13.7651 10.3011 13.8462 10.5 13.8462H13.5C13.6989 13.8462 13.8897 13.7651 14.0303 13.6209C14.171 13.4766 14.25 13.2809 14.25 13.0769V8.46154C14.25 8.25753 14.171 8.06187 14.0303 7.91761C13.8897 7.77335 13.6989 7.69231 13.5 7.69231ZM13.2 12.7692H10.8V8.76923H13.2V12.7692Z" fill="black"/>
</svg>
